<svg xmlns="http://www.w3.org/2000/svg" viewBox="0 0 24 24" id="student">
  <path fill="#ffffff" d="m20.639,18.415c-.707-2.363-2.357-4.312-4.513-5.419,1.003-1.036,1.624-2.444,1.624-3.996,0-.769-.154-1.547-.447-2.249-.159-.382-.6-.56-.981-.403-.382.159-.562.599-.403.981.217.521.332,1.099.332,1.671,0,2.344-1.906,4.25-4.25,4.25s-4.25-1.906-4.25-4.25c0-.554.105-1.094.314-1.606.156-.384-.027-.821-.411-.978-.383-.158-.822.026-.978.411-.282.693-.426,1.425-.426,2.173,0,1.553.621,2.961,1.624,3.996-2.156,1.107-3.806,3.056-4.513,5.421-.235.794-.086,1.63.409,2.294.493.66,1.247,1.039,2.069,1.039h12.32c.822,0,1.576-.379,2.069-1.039.495-.664.645-1.5.409-2.296Zm-15.666,1.398c-.21-.28-.273-.635-.174-.969.66-2.206,2.306-3.976,4.426-4.812.615.34,1.299.567,2.025.662v5.555h-5.41c-.344,0-.66-.159-.867-.437Zm14.055,0c-.207.277-.523.437-.867.437h-5.41v-5.555c.726-.095,1.41-.322,2.025-.662,2.12.836,3.766,2.606,4.426,4.81.1.336.036.69-.174.971Z" class="color112d55 svgShape"></path>
  <path fill="#a0cce3" d="m19.79,6c0-.301-.18-.572-.456-.69l-6.254-2.665c-.688-.292-1.475-.291-2.16.003l-6.215,2.663c-.308.132-.481.443-.452.759-.029.32.15.636.464.764l6.246,2.546c.331.135.685.202,1.038.202.369,0,.738-.073,1.081-.22l5.168-2.208v1.847c0,.414.336.75.75.75s.75-.336.75-.75v-2.766c.025-.075.04-.153.04-.234Zm-7.298,1.982c-.306.131-.655.133-.962.008l-4.751-1.937,4.731-2.027c.311-.136.669-.135.981,0l4.637,1.976-4.637,1.981Z" class="color549bff svgShape"></path>
</svg>
